<svg xmlns="http://www.w3.org/2000/svg" width="37" height="28.568" viewBox="0 0 37 28.568">
  <g id="Group_110" data-name="Group 110" transform="translate(-21 -13.564)">
    <path id="Path_35" data-name="Path 35" d="M21,27.552a1.308,1.308,0,0,0,.031-.187A13.843,13.843,0,0,1,23.4,19.924a14.171,14.171,0,0,1,5.8-5.038,14.592,14.592,0,0,1,4.645-1.311.948.948,0,0,1,.98.416c.783,1,1.611,1.966,2.421,2.945a1.205,1.205,0,0,1,.08.136c-.3-.037-.571-.071-.841-.1a10.613,10.613,0,0,0-4.208.368,10.73,10.73,0,0,0-4.306,2.419,10.844,10.844,0,0,0-1.52,14.37,10.9,10.9,0,0,0,7.36,4.485,10.413,10.413,0,0,0,1.64.124q9.74.012,19.479,0a.575.575,0,0,1,.5.234c.8.992,1.623,1.973,2.436,2.959.039.048.071.1.129.185-.1.007-.167.016-.233.016-7.611,0-15.223.01-22.834-.012a13.237,13.237,0,0,1-5.22-1.178,14.528,14.528,0,0,1-6.577-5.666A13.4,13.4,0,0,1,21.3,30.65c-.14-.757-.184-1.531-.271-2.3-.01-.088-.022-.176-.033-.264Z" transform="translate(0 0)" fill="#fff"/>
    <path id="Path_40" data-name="Path 40" d="M113.286,99.274c-.237-.291-.474-.582-.712-.872-.374-.454-.753-.9-1.12-1.361a.462.462,0,0,0-.4-.192q-3.221.009-6.441,0c-.308,0-.308,0-.308-.305q0-1.4,0-2.8c0-.272.012-.284.278-.284q4.055,0,8.109,0a.433.433,0,0,1,.37.183q3.629,4.409,7.264,8.812c.055.067.1.14.176.244-.108.009-.174.019-.241.019q-9.192,0-18.385-.01a8.5,8.5,0,0,1-3.413-.787,9.169,9.169,0,0,1-3.145-2.274,8.8,8.8,0,0,1-2.255-4.819,8.933,8.933,0,0,1,.927-5.426,9.076,9.076,0,0,1,3.682-3.8,8.847,8.847,0,0,1,4.917-1.14,9,9,0,0,1,5.622,2.339,9.619,9.619,0,0,1,1.348,1.513c.151.206.15.22-.064.344-.851.494-1.7.983-2.553,1.481-.141.083-.218.058-.317-.067a5.737,5.737,0,0,0-10.245,3.052,5.462,5.462,0,0,0,1.357,4.147,5.831,5.831,0,0,0,3.749,2,6.151,6.151,0,0,0,.821.05q5.368,0,10.736,0h.224Z" transform="translate(-66.773 -65.764)" fill="#fff"/>
  </g>
</svg>
