<svg xmlns="http://www.w3.org/2000/svg" xmlns:xlink="http://www.w3.org/1999/xlink" width="56" height="56" viewBox="0 0 56 56">
  <defs>
    <filter id="Ellipse_34" x="0" y="0" width="56" height="56" filterUnits="userSpaceOnUse">
      <feOffset dy="3" input="SourceAlpha"/>
      <feGaussianBlur stdDeviation="3" result="blur"/>
      <feFlood flood-opacity="0.161"/>
      <feComposite operator="in" in2="blur"/>
      <feComposite in="SourceGraphic"/>
    </filter>
  </defs>
  <g id="Group_112" data-name="Group 112" transform="translate(-12 -840)">
    <g transform="matrix(1, 0, 0, 1, 12, 840)" filter="url(#Ellipse_34)">
      <circle id="Ellipse_34-2" data-name="Ellipse 34" cx="19" cy="19" r="19" transform="translate(9 6)" fill="#963491"/>
    </g>
    <g id="Group_80" data-name="Group 80" transform="translate(-661.625 407.349)">
      <path id="Path_23" data-name="Path 23" d="M686.313,451.478l9.273-3.874,1.937-3.7-9.273,3.874Z" transform="translate(4.955 5.526)" fill="#963491" stroke="#fff" stroke-linejoin="round" stroke-width="1"/>
      <path id="Path_24" data-name="Path 24" d="M885.273,457.147,876,453.273V444l9.273,3.874Z" transform="translate(-173.599 5.438)" fill="#963491" stroke="#fff" stroke-linejoin="round" stroke-width="1"/>
      <path id="Path_26" data-name="Path 26" d="M719,457.147l9.273-3.874V444L719,447.874Z" transform="translate(-25.813 5.438)" fill="#963491" stroke="#fff" stroke-linejoin="round" stroke-width="1"/>
      <path id="Path_27" data-name="Path 27" d="M728.273,523.147,719,519.274V510l9.273,3.874Z" transform="translate(-25.813 -56.689)" fill="#963491" stroke="#fff" stroke-linejoin="round" stroke-width="1"/>
      <path id="Path_28" data-name="Path 28" d="M876,523.147l9.273-3.874V510L876,513.874Z" transform="translate(-173.599 -56.689)" fill="#963491" stroke="#fff" stroke-linejoin="round" stroke-width="1"/>
      <path id="Path_29" data-name="Path 29" d="M878,518.217l9.273-3.874-2-4.343L876,513.874Z" transform="translate(-173.599 -56.689)" fill="#963491" stroke="#fff" stroke-linejoin="round" stroke-width="1"/>
      <path id="Path_42" data-name="Path 42" d="M885.273,518.217,876,514.343,878,510l9.273,3.874Z" transform="translate(-184.732 -56.689)" fill="#963491" stroke="#fff" stroke-linejoin="round" stroke-width="1"/>
    </g>
  </g>
</svg>
