<!-- <svg xmlns="http://www.w3.org/2000/svg" width="12.852" height="12.852" viewBox="0 0 12.852 12.852">
  <g id="Group_71" data-name="Group 71" transform="translate(-48.504 -944.001)">
    <line id="Line_32" data-name="Line 32" x1="10.852" transform="translate(60.355 950.427) rotate(180)" fill="none" stroke="#000" stroke-linecap="round" stroke-linejoin="round" stroke-width="2"/>
    <line id="Line_34" data-name="Line 34" x1="10.852" transform="translate(54.93 945.001) rotate(90)" fill="none" stroke="#000" stroke-linecap="round" stroke-linejoin="round" stroke-width="2"/>
  </g>
</svg> -->


<svg xmlns="http://www.w3.org/2000/svg" xmlns:xlink="http://www.w3.org/1999/xlink" version="1.1" width="256" height="256" viewBox="0 0 256 256" xml:space="preserve">

<defs>
</defs>
<g style="stroke: none; stroke-width: 0; stroke-dasharray: none; stroke-linecap: butt; stroke-linejoin: miter; stroke-miterlimit: 10; fill: none; fill-rule: nonzero; opacity: 1;" transform="translate(1.4065934065934016 1.4065934065934016) scale(2.81 2.81)" >
	<path d="M 90 24.25 c 0 -0.896 -0.342 -1.792 -1.025 -2.475 c -1.366 -1.367 -3.583 -1.367 -4.949 0 L 45 60.8 L 5.975 21.775 c -1.367 -1.367 -3.583 -1.367 -4.95 0 c -1.366 1.367 -1.366 3.583 0 4.95 l 41.5 41.5 c 1.366 1.367 3.583 1.367 4.949 0 l 41.5 -41.5 C 89.658 26.042 90 25.146 90 24.25 z" style="stroke: none; stroke-width: 1; stroke-dasharray: none; stroke-linecap: butt; stroke-linejoin: miter; stroke-miterlimit: 10; fill: rgb(0,0,0); fill-rule: nonzero; opacity: 1;" transform=" matrix(1 0 0 1 0 0) " stroke-linecap="round" />
</g>
</svg>