<svg id="shopping_cart_black_24dp" xmlns="http://www.w3.org/2000/svg" width="32" height="32" viewBox="0 0 32 32">
  <path id="Path_15" data-name="Path 15" d="M0,0H32V32H0Z" fill="none"/>
  <path id="Path_16" data-name="Path 16" d="M21.368,17.4a2.786,2.786,0,0,0,2.45-1.442l5.011-9.086A1.4,1.4,0,0,0,27.611,4.8H6.893L5.578,2H1V4.8H3.8L8.839,15.426l-1.89,3.416A2.805,2.805,0,0,0,9.4,23H26.2V20.2H9.4l1.54-2.8ZM8.223,7.6H25.231l-3.864,7H11.541ZM9.4,24.4a2.8,2.8,0,1,0,2.8,2.8A2.8,2.8,0,0,0,9.4,24.4Zm14,0a2.8,2.8,0,1,0,2.8,2.8A2.8,2.8,0,0,0,23.4,24.4Z" fill="#fff"/>
</svg>
